<?xml version="1.0" standalone="no"?>
<!DOCTYPE svg PUBLIC "-//W3C//DTD SVG 20010904//EN"
 "http://www.w3.org/TR/2001/REC-SVG-20010904/DTD/svg10.dtd">
<svg version="1.0" xmlns="http://www.w3.org/2000/svg"
 width="256.000000pt" height="256.000000pt" viewBox="0 0 256.000000 256.000000"
 preserveAspectRatio="xMidYMid meet">
<metadata>
Created by potrace 1.10, written by Peter Selinger 2001-2011
</metadata>
<g transform="translate(0.000000,256.000000) scale(0.100000,-0.100000)"
fill="#000000" stroke="none">
<path d="M441 2384 c-169 -45 -301 -180 -346 -351 -22 -85 -22 -942 0 -1028
45 -172 179 -305 352 -350 46 -12 132 -15 433 -15 l375 0 400 -280 c295 -207
407 -280 428 -280 34 0 77 40 77 72 0 13 -16 129 -35 258 -19 129 -31 238 -27
241 4 4 31 14 60 24 115 37 228 139 277 250 42 94 45 136 45 603 0 370 -3 458
-15 507 -45 172 -179 305 -352 350 -84 22 -1590 21 -1672 -1z m1694 -174 c64
-31 124 -91 155 -155 l25 -50 0 -485 0 -485 -25 -50 c-51 -104 -147 -169 -268
-184 -50 -6 -70 -13 -84 -31 -23 -29 -23 -34 8 -245 14 -97 23 -179 21 -181
-3 -3 -150 98 -328 223 l-324 228 -420 5 -420 5 -50 25 c-64 31 -124 91 -155
155 l-25 50 -3 465 c-2 407 -1 471 13 514 33 101 105 174 205 209 40 14 136
16 835 14 l790 -2 50 -25z"/>
<path d="M905 1975 c-16 -15 -25 -36 -25 -55 0 -19 9 -40 25 -55 l24 -25 551
0 551 0 24 25 c33 32 33 78 0 110 l-24 25 -551 0 -551 0 -24 -25z"/>
<path d="M505 1575 c-16 -15 -25 -36 -25 -55 0 -19 9 -40 25 -55 l24 -25 751
0 751 0 24 25 c33 32 33 78 0 110 l-24 25 -751 0 -751 0 -24 -25z"/>
<path d="M505 1175 c-16 -15 -25 -36 -25 -55 0 -19 9 -40 25 -55 l24 -25 751
0 751 0 24 25 c33 32 33 78 0 110 l-24 25 -751 0 -751 0 -24 -25z"/>
</g>
</svg>
