<?xml version="1.0" standalone="no"?>
<!DOCTYPE svg PUBLIC "-//W3C//DTD SVG 20010904//EN"
 "http://www.w3.org/TR/2001/REC-SVG-20010904/DTD/svg10.dtd">
<svg version="1.0" xmlns="http://www.w3.org/2000/svg"
 width="300.000000pt" height="54.000000pt" viewBox="0 0 300.000000 54.000000"
 preserveAspectRatio="xMidYMid meet">
<metadata>
Created by potrace 1.10, written by Peter Selinger 2001-2011
</metadata>
<g transform="translate(0.000000,54.000000) scale(0.050000,-0.050000)"
fill="#ffffff" stroke="none">
<path d="M40 550 l0 -490 500 0 500 0 0 490 0 490 -500 0 -500 0 0 -490z m860
0 l0 -370 -360 0 -360 0 0 370 0 370 360 0 360 0 0 -370z"/>
<path d="M220 873 c0 -4 45 -104 100 -221 85 -181 100 -232 100 -333 l0 -119
110 0 110 0 0 119 c0 101 15 152 100 333 55 117 100 217 100 221 0 4 -48 7
-107 7 l-107 0 -40 -134 -40 -134 -45 134 -44 134 -119 0 c-65 0 -118 -3 -118
-7z"/>
<path d="M1245 545 l5 -335 84 -6 84 -6 6 144 c9 208 56 216 56 10 l0 -152 90
0 90 0 0 340 0 340 -90 0 -90 0 0 -120 c0 -93 -7 -120 -30 -120 -23 0 -30 27
-30 120 l0 120 -90 0 -91 0 6 -335z"/>
<path d="M2585 545 l5 -335 85 -6 85 -6 2 106 3 106 23 -100 c24 -99 24 -100
111 -106 65 -5 84 0 77 20 -66 182 -82 317 -52 425 l31 111 -75 0 c-66 0 -76
-7 -95 -65 -19 -60 -21 -56 -23 60 l-2 125 -90 0 -91 0 6 -335z"/>
<path d="M3920 540 l0 -340 69 0 69 0 6 145 6 145 46 -146 46 -146 74 6 74 6
5 335 6 335 -81 0 -80 0 -1 -135 -2 -135 -41 135 -42 135 -77 0 -77 0 0 -340z"/>
<path d="M1810 758 c-123 -71 -129 -198 -10 -198 76 0 80 3 80 60 0 68 31 80
50 20 17 -55 2 -73 -111 -131 -98 -49 -99 -50 -99 -148 0 -139 114 -219 196
-137 19 19 24 19 24 0 0 -15 31 -24 80 -24 l80 0 0 238 c0 198 -6 245 -36 282
-42 52 -191 74 -254 38z m126 -371 c-8 -97 -56 -115 -56 -22 0 38 6 74 13 82
32 31 49 8 43 -60z"/>
<path d="M2250 758 c-78 -45 -90 -81 -90 -273 0 -252 99 -345 289 -273 112 43
120 228 11 228 -78 0 -80 -1 -80 -72 0 -48 -8 -69 -25 -63 -31 10 -36 355 -5
356 11 0 23 -23 26 -50 10 -76 164 -78 164 -2 0 116 -183 210 -290 149z"/>
<path d="M3087 757 c-102 -50 -130 -416 -38 -508 111 -111 319 -41 344 116
l12 75 -80 0 c-76 0 -81 -4 -94 -70 -18 -99 -51 -87 -51 20 l0 90 110 0 c124
0 131 14 89 165 -32 115 -173 169 -292 112z m133 -137 c0 -33 -9 -60 -20 -60
-11 0 -20 27 -20 60 0 33 9 60 20 60 11 0 20 -27 20 -60z"/>
<path d="M3654 746 c-21 -22 -34 -25 -34 -10 0 15 -33 24 -91 24 l-90 0 5
-275 6 -275 84 -6 84 -6 6 176 c5 161 10 178 51 196 38 16 45 35 45 115 0 103
-12 114 -66 61z"/>
<path d="M4470 757 c-78 -43 -90 -79 -90 -272 0 -268 152 -382 327 -244 94 74
77 199 -27 199 -78 0 -80 -1 -80 -72 0 -102 -48 -77 -56 29 l-6 83 111 0 111
0 0 88 c0 176 -143 269 -290 189z m130 -148 c0 -54 -35 -66 -53 -19 -15 40 8
96 33 80 11 -7 20 -34 20 -61z"/>
<path d="M5470 757 c-127 -76 -97 -225 66 -326 54 -33 84 -65 80 -85 -11 -56
-56 -54 -56 2 0 47 -7 52 -80 52 -72 0 -80 -5 -80 -51 0 -83 83 -149 187 -149
224 0 258 235 49 342 -57 29 -76 51 -76 88 0 62 35 66 44 5 11 -78 156 -77
156 1 0 107 -184 184 -290 121z"/>
<path d="M4800 728 c0 -18 15 -144 33 -281 l33 -249 92 6 92 6 22 120 21 120
16 -126 15 -126 93 6 93 6 23 180 c13 99 29 223 36 275 l12 95 -78 0 -78 0
-15 -135 c-17 -149 -21 -147 -40 20 -20 181 -167 171 -171 -12 -3 -99 -36
-162 -38 -70 -3 161 -20 197 -93 197 -49 0 -68 -9 -68 -32z"/>
</g>
</svg>
