<?xml version="1.0" standalone="no"?>
<!DOCTYPE svg PUBLIC "-//W3C//DTD SVG 20010904//EN"
 "http://www.w3.org/TR/2001/REC-SVG-20010904/DTD/svg10.dtd">
<svg version="1.0" xmlns="http://www.w3.org/2000/svg"
 width="300.000000pt" height="300.000000pt" viewBox="0 0 300.000000 300.000000"
 preserveAspectRatio="xMidYMid meet">
<metadata>
Created by potrace 1.10, written by Peter Selinger 2001-2011
</metadata>
<g transform="translate(0.000000,300.000000) scale(0.100000,-0.100000)" stroke="none">
<path d="M1694 2666 c-45 -20 -98 -70 -137 -129 -124 -190 -528 -818 -543
-847 -18 -33 -19 -69 -22 -639 l-3 -603 26 -43 c16 -29 39 -50 68 -64 43 -21
53 -21 738 -21 655 0 696 1 729 18 54 29 92 102 133 259 21 76 88 330 151 565
126 468 125 466 69 521 -59 56 -68 57 -493 57 -257 0 -407 4 -436 11 -50 13
-84 48 -84 87 0 14 30 136 66 271 77 286 85 347 57 412 -29 64 -66 104 -125
133 -59 29 -142 34 -194 12z"/>
<path d="M134 1640 c-39 -16 -72 -67 -79 -122 -3 -29 -5 -289 -3 -578 3 -584
0 -557 71 -600 30 -19 52 -20 356 -20 307 0 325 1 356 20 66 41 65 28 65 645
0 616 1 606 -64 646 -29 18 -55 19 -356 18 -179 0 -334 -4 -346 -9z"/>
</g>
</svg>
